<?xml version="1.0" encoding="UTF-8" standalone="no"?>
<!-- Generator: Adobe Illustrator 18.0.0, SVG Export Plug-In . SVG Version: 6.00 Build 0)  -->

<svg
   xmlns:dc="http://purl.org/dc/elements/1.1/"
   xmlns:cc="http://creativecommons.org/ns#"
   xmlns:rdf="http://www.w3.org/1999/02/22-rdf-syntax-ns#"
   xmlns:svg="http://www.w3.org/2000/svg"
   xmlns="http://www.w3.org/2000/svg"
   xmlns:sodipodi="http://sodipodi.sourceforge.net/DTD/sodipodi-0.dtd"
   xmlns:inkscape="http://www.inkscape.org/namespaces/inkscape"
   version="1.1"
   id="Layer_1"
   x="0px"
   y="0px"
   viewBox="0 0 291 217.5"
   enable-background="new 0 0 291 217.5"
   xml:space="preserve"
   inkscape:version="0.91 r13725"
   sodipodi:docname="logo-b-w-horizontal-white.svg"><metadata
     id="metadata73"><rdf:RDF><cc:Work
         rdf:about=""><dc:format>image/svg+xml</dc:format><dc:type
           rdf:resource="http://purl.org/dc/dcmitype/StillImage" /><dc:title></dc:title></cc:Work></rdf:RDF></metadata><defs
     id="defs71" /><sodipodi:namedview
     pagecolor="#ffffff"
     bordercolor="#666666"
     borderopacity="1"
     objecttolerance="10"
     gridtolerance="10"
     guidetolerance="10"
     inkscape:pageopacity="0"
     inkscape:pageshadow="2"
     inkscape:window-width="1920"
     inkscape:window-height="1051"
     id="namedview69"
     showgrid="false"
     inkscape:zoom="2"
     inkscape:cx="147.57117"
     inkscape:cy="108.75"
     inkscape:window-x="1366"
     inkscape:window-y="0"
     inkscape:window-maximized="1"
     inkscape:current-layer="Layer_1" /><g
     id="g3"
     style="fill:#ffffff"><circle
       fill="#282829"
       cx="94"
       cy="119.3"
       r="1.2"
       id="circle5"
       style="fill:#ffffff" /><circle
       fill="#282829"
       cx="90.5"
       cy="123.7"
       r="1.2"
       id="circle7"
       style="fill:#ffffff" /><circle
       fill="#282829"
       cx="86.6"
       cy="128.2"
       r="1.2"
       id="circle9"
       style="fill:#ffffff" /><path
       fill="#282829"
       d="M50.1,95.5L50.1,95.5L50.1,95.5l-3.9,17.1l0,0c-0.1,0.7,0.3,1.3,0.9,1.5c0.7,0.2,1.3-0.3,1.5-0.9L52.5,96   c0.1-0.7-0.3-1.3-0.9-1.5C50.9,94.4,50.3,94.8,50.1,95.5z"
       id="path11"
       style="fill:#ffffff" /><circle
       fill="#282829"
       cx="50.3"
       cy="119.7"
       r="1.2"
       id="circle13"
       style="fill:#ffffff" /><circle
       fill="#282829"
       cx="48.4"
       cy="117.3"
       r="1.2"
       id="circle15"
       style="fill:#ffffff" /><circle
       fill="#282829"
       cx="59.3"
       cy="131"
       r="1.2"
       id="circle17"
       style="fill:#ffffff" /><path
       fill="#282829"
       d="M51.3,122.9L51.3,122.9L51.3,122.9l5.2,6.5l0,0c0.4,0.5,1.2,0.6,1.7,0.2c0.5-0.4,0.6-1.2,0.2-1.7l-5.2-6.5   c-0.4-0.5-1.2-0.6-1.8-0.2C50.9,121.5,50.8,122.3,51.3,122.9z"
       id="path19"
       style="fill:#ffffff" /><path
       fill="#282829"
       d="M67.3,131.2L67.3,131.2L67.3,131.2l-4,0v0c-0.7,0-1.2,0.6-1.2,1.2c0,0.7,0.6,1.2,1.2,1.2l4,0   c0.7,0,1.2-0.6,1.2-1.2C68.5,131.8,68,131.2,67.3,131.2z"
       id="path21"
       style="fill:#ffffff" /><path
       fill="#282829"
       d="M73.7,131.2L73.7,131.2L73.7,131.2l-3.4,0v0c-0.7,0-1.2,0.6-1.2,1.2s0.6,1.2,1.2,1.2l3.4,0   c0.7,0,1.2-0.6,1.2-1.2C75,131.8,74.4,131.2,73.7,131.2z"
       id="path23"
       style="fill:#ffffff" /><path
       fill="#282829"
       d="M80.8,131.2L80.8,131.2L80.8,131.2l-4.1,0v0c-0.7,0-1.2,0.6-1.2,1.2c0,0.7,0.6,1.2,1.2,1.2l4.1,0   c0.7,0,1.2-0.6,1.2-1.2C82.1,131.8,81.5,131.2,80.8,131.2z"
       id="path25"
       style="fill:#ffffff" /><circle
       fill="#282829"
       cx="95.5"
       cy="109.8"
       r="1.2"
       id="circle27"
       style="fill:#ffffff" /><circle
       fill="#282829"
       cx="94.9"
       cy="106.8"
       r="1.2"
       id="circle29"
       style="fill:#ffffff" /><circle
       fill="#282829"
       cx="96.2"
       cy="112.7"
       r="1.2"
       id="circle31"
       style="fill:#ffffff" /><path
       fill="#282829"
       d="M95.4,103.5L95.4,103.5L95.4,103.5l-1.8-8.1l0,0c-0.2-0.7-0.8-1.1-1.5-0.9c-0.7,0.2-1.1,0.8-0.9,1.5   l1.8,8.1c0.2,0.7,0.8,1.1,1.5,0.9C95.1,104.9,95.5,104.2,95.4,103.5z"
       id="path33"
       style="fill:#ffffff" /><circle
       fill="#282829"
       cx="76.8"
       cy="86.4"
       r="1.2"
       id="circle35"
       style="fill:#ffffff" /><circle
       fill="#282829"
       cx="74.1"
       cy="85"
       r="1.2"
       id="circle37"
       style="fill:#ffffff" /><path
       fill="#282829"
       d="M79,88.8L79,88.8L79,88.8l10.2,5l0,0c0.6,0.3,1.4,0,1.7-0.6c0.3-0.6,0-1.4-0.6-1.7l-10.2-5   c-0.6-0.3-1.4,0-1.7,0.6S78.4,88.5,79,88.8z"
       id="path39"
       style="fill:#ffffff" /><circle
       fill="#282829"
       cx="66.9"
       cy="86.6"
       r="1.2"
       id="circle41"
       style="fill:#ffffff" /><circle
       fill="#282829"
       cx="69.7"
       cy="85.2"
       r="1.2"
       id="circle43"
       style="fill:#ffffff" /><path
       fill="#282829"
       d="M64.7,89L64.7,89L64.7,89L54.4,94l0,0c-0.6,0.3-1.4,0-1.7-0.6c-0.3-0.6,0-1.4,0.6-1.7l10.3-4.9   c0.6-0.3,1.4,0,1.7,0.6C65.6,88,65.3,88.7,64.7,89z"
       id="path45"
       style="fill:#ffffff" /><g
       id="g47"
       style="fill:#ffffff"><g
         id="g49"
         style="fill:#ffffff"><path
           fill="#282829"
           d="M79,128.8H64.6c-1.2,0-2.6-0.7-3.3-1.6l-9-11.3c-0.7-0.9-1.1-2.5-0.8-3.6l3.2-14.1     c0.3-1.2,1.2-2.4,2.3-2.9l13-6.3c0.7-0.3,1.4-0.4,1.9-0.4s1.2,0.1,1.9,0.4l13,6.3c1.1,0.5,2,1.7,2.3,2.9l3.2,14.1     c0.3,1.2-0.1,2.7-0.8,3.6l-9,11.3C81.6,128.1,80.2,128.8,79,128.8z M71.8,91.8c-0.2,0-0.4,0-0.5,0.1l-13,6.3     c-0.2,0.1-0.6,0.5-0.6,0.8L54.5,113c-0.1,0.2,0.1,0.8,0.2,1l9,11.3c0.2,0.2,0.7,0.4,0.9,0.4H79c0.2,0,0.7-0.2,0.9-0.4l9-11.3     c0.2-0.2,0.3-0.7,0.2-1l-3.2-14.1c-0.1-0.2-0.4-0.7-0.6-0.8l-13-6.3C72.3,91.9,72.1,91.8,71.8,91.8z"
           id="path51"
           style="fill:#ffffff" /></g></g><g
       id="g53"
       style="fill:#ffffff"><path
         fill="#282829"
         d="M209,108.9c0,3.4-0.8,6-2.5,7.8c-1.7,1.9-4.1,2.8-7.1,2.8c-3.1,0-5.5-0.9-7.2-2.8    c-1.7-1.8-2.5-4.5-2.5-7.9c0-3.4,0.8-6,2.5-7.8c1.7-1.8,4.1-2.7,7.2-2.7c3.1,0,5.4,0.9,7.1,2.8C208.1,102.9,209,105.5,209,108.9z     M193.3,108.9c0,2.5,0.5,4.5,1.5,5.8c1,1.3,2.5,2,4.6,2c2,0,3.5-0.6,4.5-1.9c1-1.3,1.5-3.2,1.5-5.8c0-2.5-0.5-4.4-1.5-5.7    c-1-1.3-2.5-2-4.5-2c-2,0-3.5,0.7-4.6,2C193.8,104.4,193.3,106.3,193.3,108.9z"
         id="path55"
         style="fill:#ffffff" /><path
         fill="#282829"
         d="M118.6,101.2c-1.8-1.8-4.4-2.6-7.7-2.6h-3.7c-2.5,0-2.7,2.1-2.7,2.7v15.5c0.2,2,1.7,2.4,2.5,2.4h0.4    c0.1,0,0.1,0,0.1,0l0,0h2.8c3.6,0,6.3-0.9,8.2-2.7c1.9-1.8,2.8-4.4,2.8-7.8C121.3,105.5,120.4,103,118.6,101.2z M110.3,116.4h-2.4    v-14.9h2.9c4.6,0,6.9,2.5,6.9,7.4C117.7,113.8,115.3,116.4,110.3,116.4z"
         id="path57"
         style="fill:#ffffff" /><path
         fill="#282829"
         d="M142.3,98.6c-1.8,0-1.7,2.5-1.7,2.5l0,10.4c0,3.3-1.6,5-4.8,5c-1.6,0-2.8-0.4-3.6-1.2    c-0.8-0.8-1.2-2.1-1.2-3.8l0-10.5c0-0.1,0.1-2.5-1.7-2.5c-1.7,0-1.7,2.4-1.7,2.5l0,10.7c0,2.4,0.7,4.2,2.1,5.6c1.4,1.4,3.4,2,6,2    c1.7,0,3.2-0.3,4.4-0.9c1.2-0.6,2.2-1.5,2.8-2.6c0.7-1.1,1-2.5,1-4l0-10.8C144,101.1,144.1,98.6,142.3,98.6z"
         id="path59"
         style="fill:#ffffff" /><path
         fill="#282829"
         d="M165.2,110c-0.7-0.8-1.7-1.3-3.2-1.6v-0.1c1.2-0.2,2.1-0.7,2.7-1.5c0.6-0.8,0.9-1.8,0.9-3    c0-1.8-0.6-3.1-1.9-3.9c-1.3-0.8-3.3-1.2-6.1-1.2h-3.1l0,0c-1.6-0.1-2.4,0.7-2.7,1.4c-0.1,0.2-0.3,0.9-0.3,2.3l0,0l0,14.2    c0,2.8,3.1,2.6,3.1,2.6l4.4,0c2.3,0,4.1-0.5,5.4-1.6c1.3-1,1.9-2.5,1.9-4.3C166.2,111.9,165.9,110.8,165.2,110z M154.8,101.4h2.9    c1.5,0,2.6,0.2,3.3,0.6c0.7,0.4,1,1.1,1,2.1c0,1.1-0.3,1.8-1,2.3c-0.6,0.4-1.7,0.7-3.1,0.7h-3.2V101.4z M161.6,115.5    c-0.7,0.5-1.8,0.8-3.2,0.8h-3.6v-6.5h3.4c1.5,0,2.6,0.3,3.3,0.8c0.7,0.5,1.1,1.3,1.1,2.4C162.7,114.2,162.3,115,161.6,115.5z"
         id="path61"
         style="fill:#ffffff" /><path
         fill="#282829"
         d="M184.1,110.9c-0.3-0.7-0.8-1.3-1.6-1.8c-0.7-0.5-1.8-1.1-3.3-1.8c-1.3-0.6-2.3-1-2.8-1.3    c-0.5-0.3-0.9-0.7-1.1-1.1c-0.2-0.4-0.3-0.8-0.3-1.4c0-0.8,0.3-1.4,0.8-1.9c0.6-0.5,1.4-0.7,2.5-0.7c0.8,0,1.7,0.1,2.7,0.4l0,0    c0,0,2.4,0.7,2.8-0.4c0.5-1.5-1.5-2.2-1.5-2.3l0,0c-1.3-0.4-2.6-0.6-3.9-0.6c-2.1,0-3.7,0.5-4.9,1.5c-1.2,1-1.8,2.3-1.8,4.1    c0,1.4,0.4,2.5,1.2,3.5c0.8,1,2.1,1.8,4,2.6c1.8,0.7,3,1.4,3.6,1.9c0.6,0.5,0.9,1.2,0.9,2c0,0.9-0.3,1.5-1,2    c-0.6,0.5-1.6,0.8-3,0.8c-0.9,0-1.9-0.1-3-0.4l-0.4-0.1c0,0-2.2-0.7-2.6,0.9c-0.4,1.5,1.7,2,1.8,2l0.1,0c1.1,0.3,2.4,0.4,3.8,0.4    c2.3,0,4.2-0.5,5.5-1.6c1.3-1,2-2.5,2-4.3C184.5,112.4,184.4,111.6,184.1,110.9z"
         id="path63"
         style="fill:#ffffff" /><path
         fill="#282829"
         d="M223.6,101.4c0.1,0,2.2,0.1,2.2-1.4c0-1.5-2.2-1.4-2.2-1.4l-6.1,0c-1.6-0.1-2.5,0.6-2.9,1.2l0,0    c0,0-0.4,0.6-0.4,2.3l0,0l0,14.6c0,0.1-0.1,2.5,1.7,2.5c1.7,0,1.7-2.4,1.7-2.5l0-5.9l5.6,0c0,0,2.2,0.1,2.2-1.4s-2.2-1.4-2.2-1.4    l-5.6,0v-6.4L223.6,101.4z"
         id="path65"
         style="fill:#ffffff" /><path
         fill="#282829"
         d="M242.6,98.6L242.6,98.6l-11.1,0c-0.1,0-2.2-0.1-2.2,1.4c0,1.5,2.2,1.5,2.2,1.5l3.9,0l0,15.1    c0,0.1-0.1,2.6,1.7,2.6c1.8,0,1.7-2.5,1.7-2.6l0-15.1h3.8v0c0,0,2.2,0.1,2.2-1.4C244.8,98.6,242.9,98.6,242.6,98.6z"
         id="path67"
         style="fill:#ffffff" /></g></g></svg>