<?xml version="1.0" encoding="UTF-8" standalone="no"?>
<!-- Generator: Adobe Illustrator 18.0.0, SVG Export Plug-In . SVG Version: 6.00 Build 0)  -->

<svg
   xmlns:dc="http://purl.org/dc/elements/1.1/"
   xmlns:cc="http://creativecommons.org/ns#"
   xmlns:rdf="http://www.w3.org/1999/02/22-rdf-syntax-ns#"
   xmlns:svg="http://www.w3.org/2000/svg"
   xmlns="http://www.w3.org/2000/svg"
   xmlns:sodipodi="http://sodipodi.sourceforge.net/DTD/sodipodi-0.dtd"
   xmlns:inkscape="http://www.inkscape.org/namespaces/inkscape"
   version="1.1"
   id="Layer_1"
   x="0px"
   y="0px"
   viewBox="0 0 219.6 218"
   enable-background="new 0 0 219.6 218"
   xml:space="preserve"
   inkscape:version="0.91 r13725"
   sodipodi:docname="logo-b-w.svg"><metadata
     id="metadata57"><rdf:RDF><cc:Work
         rdf:about=""><dc:format>image/svg+xml</dc:format><dc:type
           rdf:resource="http://purl.org/dc/dcmitype/StillImage" /></cc:Work></rdf:RDF></metadata><defs
     id="defs55" /><sodipodi:namedview
     pagecolor="#ffffff"
     bordercolor="#666666"
     borderopacity="1"
     objecttolerance="10"
     gridtolerance="10"
     guidetolerance="10"
     inkscape:pageopacity="0"
     inkscape:pageshadow="2"
     inkscape:window-width="1920"
     inkscape:window-height="1051"
     id="namedview53"
     showgrid="false"
     inkscape:zoom="1.0825688"
     inkscape:cx="150.07289"
     inkscape:cy="109"
     inkscape:window-x="1366"
     inkscape:window-y="0"
     inkscape:window-maximized="1"
     inkscape:current-layer="Layer_1" /><g
     id="g3"
     style="fill:none"><circle
       fill="#282829"
       cx="160.1"
       cy="133"
       r="2.8"
       id="circle5"
       style="fill:none" /><circle
       fill="#282829"
       cx="152.2"
       cy="143"
       r="2.8"
       id="circle7"
       style="fill:none" /><circle
       fill="#282829"
       cx="143.4"
       cy="153.2"
       r="2.8"
       id="circle9"
       style="fill:none" /><path
       fill="#282829"
       d="M60.5,78.8L60.5,78.8L60.5,78.8l-8.8,38.8l0,0c-0.3,1.5,0.6,3,2.1,3.4c1.5,0.3,3-0.6,3.4-2.1L66,80.1   c0.3-1.5-0.6-3-2.1-3.4C62.4,76.3,60.8,77.3,60.5,78.8z"
       id="path11"
       style="fill:none" /><circle
       fill="#282829"
       cx="61"
       cy="133.9"
       r="2.8"
       id="circle13"
       style="fill:none" /><circle
       fill="#282829"
       cx="56.5"
       cy="128.4"
       r="2.8"
       id="circle15"
       style="fill:none" /><circle
       fill="#282829"
       cx="81.4"
       cy="159.5"
       r="2.8"
       id="circle17"
       style="fill:none" /><path
       fill="#282829"
       d="M63.1,141.1L63.1,141.1L63.1,141.1l11.8,14.8l0,0c1,1.2,2.8,1.4,4,0.4c1.2-1,1.4-2.7,0.5-4l-11.8-14.8   c-1-1.2-2.8-1.4-4-0.4C62.3,138.1,62.1,139.8,63.1,141.1z"
       id="path19"
       style="fill:none" /><path
       fill="#282829"
       d="M99.5,160.1L99.5,160.1L99.5,160.1l-9.1,0v0c-1.6,0-2.8,1.3-2.8,2.8c0,1.6,1.3,2.8,2.8,2.8l9.1,0   c1.6,0,2.8-1.3,2.8-2.8S101.1,160.1,99.5,160.1z"
       id="path21"
       style="fill:none" /><path
       fill="#282829"
       d="M114.1,160.1L114.1,160.1L114.1,160.1l-7.7,0v0c-1.6,0-2.8,1.3-2.8,2.8c0,1.6,1.3,2.8,2.8,2.8l7.7,0   c1.6,0,2.8-1.3,2.8-2.8C117,161.3,115.7,160.1,114.1,160.1z"
       id="path23"
       style="fill:none" /><path
       fill="#282829"
       d="M130.3,160.1L130.3,160.1L130.3,160.1l-9.2,0v0c-1.6,0-2.8,1.3-2.8,2.8c0,1.6,1.3,2.8,2.8,2.8l9.2,0   c1.6,0,2.8-1.3,2.8-2.8C133.1,161.3,131.9,160.1,130.3,160.1z"
       id="path25"
       style="fill:none" /><circle
       fill="#282829"
       cx="163.7"
       cy="111.3"
       r="2.8"
       id="circle27"
       style="fill:none" /><circle
       fill="#282829"
       cx="162.2"
       cy="104.5"
       r="2.8"
       id="circle29"
       style="fill:none" /><circle
       fill="#282829"
       cx="165.2"
       cy="118.1"
       r="2.8"
       id="circle31"
       style="fill:none" /><path
       fill="#282829"
       d="M163.4,97.1L163.4,97.1L163.4,97.1l-4.2-18.5l0,0c-0.4-1.5-1.9-2.5-3.4-2.1c-1.5,0.3-2.5,1.8-2.1,3.4   l4.2,18.5c0.4,1.5,1.9,2.5,3.4,2.1C162.8,100.2,163.7,98.7,163.4,97.1z"
       id="path33"
       style="fill:none" /><circle
       fill="#282829"
       cx="121.1"
       cy="58.2"
       r="2.8"
       id="circle35"
       style="fill:none" /><circle
       fill="#282829"
       cx="114.9"
       cy="55.1"
       r="2.8"
       id="circle37"
       style="fill:none" /><path
       fill="#282829"
       d="M126.2,63.8L126.2,63.8L126.2,63.8l23.2,11.3l0,0c1.4,0.7,3.1,0.1,3.8-1.3c0.7-1.4,0.1-3.1-1.3-3.8   l-23.2-11.3c-1.4-0.7-3.1-0.1-3.8,1.3C124.3,61.4,124.8,63.1,126.2,63.8z"
       id="path39"
       style="fill:none" /><circle
       fill="#282829"
       cx="98.7"
       cy="58.6"
       r="2.8"
       id="circle41"
       style="fill:none" /><circle
       fill="#282829"
       cx="105"
       cy="55.6"
       r="2.8"
       id="circle43"
       style="fill:none" /><path
       fill="#282829"
       d="M93.6,64.2L93.6,64.2L93.6,64.2L70.3,75.5l0,0c-1.4,0.7-3.1,0.1-3.8-1.3c-0.7-1.4-0.1-3.1,1.3-3.8   l23.3-11.2c1.4-0.7,3.1-0.1,3.8,1.3C95.6,61.9,95,63.5,93.6,64.2z"
       id="path45"
       style="fill:none" /><g
       id="g47"
       style="fill:none"><g
         id="g49"
         style="fill:none"><path
           fill="#282829"
           d="M126.2,154.6H93.4c-2.7,0-5.9-1.5-7.6-3.7l-20.4-25.6c-1.7-2.1-2.5-5.6-1.9-8.2l7.3-32     c0.6-2.6,2.8-5.4,5.3-6.6l29.5-14.2c1.5-0.7,3.1-0.9,4.2-0.9c1.1,0,2.7,0.2,4.2,0.9l29.5,14.2c2.4,1.2,4.6,3.9,5.3,6.6l7.3,32     c0.6,2.6-0.2,6.1-1.9,8.2l-20.4,25.6C132.1,153,128.9,154.6,126.2,154.6z M109.8,70.5c-0.6,0-1,0.1-1.1,0.2L79.1,84.9     c-0.5,0.2-1.3,1.2-1.4,1.8l-7.3,32c-0.1,0.5,0.2,1.8,0.5,2.2l20.4,25.6c0.3,0.4,1.5,1,2,1h32.8c0.5,0,1.7-0.5,2-1l20.4-25.6     c0.3-0.4,0.6-1.7,0.5-2.2l-7.3-32c-0.1-0.5-0.9-1.5-1.4-1.8l-29.5-14.2C110.8,70.6,110.4,70.5,109.8,70.5z"
           id="path51"
           style="fill:none" /></g></g></g></svg>