<?xml version="1.0" encoding="utf-8"?>
<!-- Generator: Adobe Illustrator 18.0.0, SVG Export Plug-In . SVG Version: 6.00 Build 0)  -->
<!DOCTYPE svg PUBLIC "-//W3C//DTD SVG 1.1//EN" "http://www.w3.org/Graphics/SVG/1.1/DTD/svg11.dtd">
<svg version="1.1" id="Layer_1" xmlns="http://www.w3.org/2000/svg" xmlns:xlink="http://www.w3.org/1999/xlink" x="0px" y="0px"
	 viewBox="0 0 253.5 217.5" enable-background="new 0 0 253.5 217.5" xml:space="preserve">
<g>
	<circle fill="#282829" cx="166.7" cy="107.7" r="2.3"/>
	<circle fill="#282829" cx="160.5" cy="115.6" r="2.3"/>
	<circle fill="#282829" cx="153.5" cy="123.8" r="2.3"/>
	<path fill="#282829" d="M87.5,64.6L87.5,64.6L87.5,64.6l-7,30.8l0,0c-0.3,1.2,0.5,2.4,1.7,2.7c1.2,0.3,2.4-0.5,2.7-1.7l7-30.8
		c0.3-1.2-0.5-2.4-1.7-2.7C89,62.7,87.8,63.4,87.5,64.6z"/>
	<circle fill="#282829" cx="87.9" cy="108.4" r="2.3"/>
	<circle fill="#282829" cx="84.4" cy="104" r="2.3"/>
	<circle fill="#282829" cx="104.2" cy="128.8" r="2.3"/>
	<path fill="#282829" d="M89.6,114.1L89.6,114.1L89.6,114.1l9.4,11.8l0,0c0.8,1,2.2,1.1,3.2,0.3c1-0.8,1.1-2.2,0.4-3.2l-9.4-11.8
		c-0.8-1-2.2-1.1-3.2-0.3C89,111.7,88.8,113.2,89.6,114.1z"/>
	<path fill="#282829" d="M118.6,129.2L118.6,129.2L118.6,129.2l-7.3,0v0c-1.2,0-2.2,1-2.2,2.3c0,1.2,1,2.2,2.2,2.3l7.3,0
		c1.2,0,2.2-1,2.2-2.3C120.8,130.3,119.8,129.2,118.6,129.2z"/>
	<path fill="#282829" d="M130.2,129.2L130.2,129.2L130.2,129.2l-6.1,0v0c-1.2,0-2.2,1-2.2,2.3c0,1.2,1,2.2,2.2,2.3l6.1,0
		c1.2,0,2.2-1,2.2-2.3C132.4,130.3,131.4,129.2,130.2,129.2z"/>
	<path fill="#282829" d="M143,129.2L143,129.2L143,129.2l-7.4,0v0c-1.2,0-2.2,1-2.2,2.3c0,1.2,1,2.2,2.2,2.3l7.4,0
		c1.2,0,2.2-1,2.2-2.3S144.3,129.2,143,129.2z"/>
	<circle fill="#282829" cx="169.6" cy="90.5" r="2.3"/>
	<circle fill="#282829" cx="168.4" cy="85.1" r="2.3"/>
	<circle fill="#282829" cx="170.8" cy="95.8" r="2.3"/>
	<path fill="#282829" d="M169.3,79.2L169.3,79.2L169.3,79.2L166,64.5l0,0c-0.3-1.2-1.5-1.9-2.7-1.7s-2,1.5-1.7,2.7l3.3,14.7
		c0.3,1.2,1.5,2,2.7,1.7C168.9,81.6,169.6,80.4,169.3,79.2z"/>
	<circle fill="#282829" cx="135.7" cy="48.2" r="2.3"/>
	<circle fill="#282829" cx="130.8" cy="45.8" r="2.3"/>
	<path fill="#282829" d="M139.8,52.7L139.8,52.7L139.8,52.7l18.5,9l0,0c1.1,0.5,2.5,0.1,3-1s0.1-2.5-1-3l-18.5-9
		c-1.1-0.5-2.5-0.1-3,1C138.2,50.8,138.7,52.1,139.8,52.7z"/>
	<circle fill="#282829" cx="117.9" cy="48.6" r="2.3"/>
	<circle fill="#282829" cx="122.9" cy="46.1" r="2.3"/>
	<path fill="#282829" d="M113.9,53L113.9,53L113.9,53L95.3,62l0,0c-1.1,0.5-2.5,0.1-3-1.1c-0.5-1.1-0.1-2.5,1-3l18.5-8.9
		c1.1-0.5,2.5-0.1,3,1.1C115.5,51.1,115,52.5,113.9,53z"/>
	<g>
		<g>
			<path fill="#282829" d="M139.8,124.9h-26.1c-2.2,0-4.7-1.2-6-2.9l-16.3-20.4c-1.3-1.7-2-4.4-1.5-6.5l5.8-25.4
				c0.5-2.1,2.2-4.3,4.2-5.2l23.5-11.3c1.2-0.6,2.5-0.7,3.3-0.7c0.9,0,2.1,0.1,3.3,0.7l23.5,11.3c1.9,0.9,3.7,3.1,4.2,5.2l5.8,25.4
				c0.5,2.1-0.1,4.8-1.5,6.5L145.8,122C144.5,123.7,141.9,124.9,139.8,124.9z M126.7,58c-0.4,0-0.8,0.1-0.9,0.1l-23.5,11.3
				c-0.4,0.2-1,1-1.1,1.4l-5.8,25.4c-0.1,0.4,0.1,1.4,0.4,1.7l16.3,20.4c0.3,0.3,1.2,0.8,1.6,0.8h26.1c0.4,0,1.3-0.4,1.6-0.8
				l16.3-20.4c0.3-0.3,0.5-1.3,0.4-1.7l-5.8-25.4c-0.1-0.4-0.7-1.2-1.1-1.4l-23.5-11.3C127.5,58.1,127.2,58,126.7,58z"/>
		</g>
	</g>
	<g>
		<path fill="#282829" d="M172.7,159.8c0,4.5-1.1,8-3.4,10.5c-2.2,2.5-5.4,3.7-9.5,3.7c-4.2,0-7.4-1.2-9.6-3.7s-3.3-6-3.3-10.5
			c0-4.6,1.1-8,3.4-10.5c2.2-2.4,5.4-3.7,9.6-3.7c4.1,0,7.3,1.2,9.5,3.7C171.6,151.8,172.7,155.3,172.7,159.8z M151.6,159.8
			c0,3.4,0.7,6,2.1,7.7c1.4,1.8,3.4,2.6,6.1,2.6c2.7,0,4.7-0.9,6.1-2.6c1.4-1.7,2-4.3,2-7.8c0-3.4-0.7-5.9-2-7.7
			c-1.4-1.7-3.4-2.6-6-2.6c-2.7,0-4.7,0.9-6.1,2.6C152.3,153.8,151.6,156.4,151.6,159.8z"/>
		<path fill="#282829" d="M51.6,149.6c-2.4-2.4-5.9-3.5-10.2-3.5h-4.9c-3.3,0-3.6,2.9-3.6,3.6v20.7c0.3,2.7,2.2,3.2,3.3,3.3h0.6
			c0.1,0,0.2,0,0.2,0l-0.1,0h3.7c4.8,0,8.4-1.2,10.9-3.6c2.5-2.4,3.8-5.9,3.8-10.4C55.3,155.3,54,151.9,51.6,149.6z M40.6,169.8
			h-3.2v-20h3.9c6.2,0,9.3,3.3,9.3,9.9C50.5,166.4,47.2,169.8,40.6,169.8z"/>
		<path fill="#282829" d="M83.5,146c-2.4,0-2.3,3.4-2.3,3.4l0,14c0,4.5-2.1,6.7-6.4,6.7c-2.2,0-3.8-0.5-4.9-1.6
			c-1.1-1.1-1.6-2.8-1.6-5l0-14.1c0-0.2,0.1-3.4-2.2-3.4c-2.3,0-2.3,3.2-2.3,3.4l0,14.4c0,3.2,0.9,5.7,2.8,7.5
			c1.9,1.8,4.6,2.7,8,2.7c2.3,0,4.3-0.4,5.9-1.2c1.7-0.8,2.9-2,3.8-3.5c0.9-1.5,1.3-3.3,1.3-5.3l0-14.4
			C85.7,149.4,85.9,146,83.5,146z"/>
		<path fill="#282829" d="M114.1,161.3c-0.9-1.1-2.3-1.8-4.3-2.2V159c1.6-0.3,2.8-0.9,3.6-2c0.8-1.1,1.2-2.4,1.2-4
			c0-2.4-0.8-4.1-2.5-5.2s-4.4-1.7-8.2-1.7h-4.1l0,0c-2.1-0.1-3.2,1-3.6,1.9c-0.1,0.3-0.4,1.2-0.4,3.1l0,0l0,19
			c0,3.8,4.1,3.5,4.1,3.5l5.9,0c3.1,0,5.5-0.7,7.2-2.1c1.7-1.4,2.6-3.3,2.6-5.8C115.4,163.8,115,162.4,114.1,161.3z M100.2,149.8
			h3.9c2,0,3.5,0.3,4.5,0.9c0.9,0.6,1.4,1.5,1.4,2.8c0,1.4-0.4,2.4-1.3,3c-0.9,0.6-2.2,0.9-4.1,0.9h-4.3V149.8z M109.2,168.7
			c-1,0.7-2.4,1.1-4.3,1.1h-4.8v-8.7h4.6c2,0,3.5,0.3,4.5,1c1,0.7,1.5,1.8,1.5,3.2C110.7,166.9,110.2,168,109.2,168.7z"/>
		<path fill="#282829" d="M139.3,162.5c-0.4-0.9-1.1-1.7-2.1-2.5c-0.9-0.7-2.4-1.5-4.5-2.4c-1.8-0.7-3-1.3-3.7-1.8
			c-0.7-0.5-1.2-0.9-1.5-1.4c-0.3-0.5-0.5-1.1-0.5-1.8c0-1,0.4-1.9,1.1-2.5c0.8-0.6,1.9-1,3.3-1c1.1,0,2.3,0.2,3.6,0.5l0,0
			c0,0,3.3,1,3.8-0.6c0.7-2-2-3-2-3l0,0c-1.7-0.5-3.5-0.8-5.2-0.8c-2.8,0-4.9,0.7-6.6,2c-1.6,1.3-2.5,3.1-2.5,5.4
			c0,1.8,0.5,3.4,1.5,4.7c1,1.3,2.8,2.5,5.3,3.5c2.4,1,4,1.8,4.8,2.5c0.8,0.7,1.2,1.6,1.2,2.6c0,1.1-0.4,2.1-1.3,2.7
			c-0.8,0.7-2.2,1-4,1c-1.2,0-2.5-0.2-4-0.5l-0.5-0.1c0,0-2.9-0.9-3.4,1.1c-0.5,2,2.3,2.7,2.4,2.7l0.1,0c1.5,0.4,3.2,0.6,5.1,0.6
			c3.1,0,5.6-0.7,7.3-2.1c1.8-1.4,2.7-3.3,2.7-5.8C140,164.5,139.8,163.4,139.3,162.5z"/>
		<path fill="#282829" d="M192.2,149.8c0.1,0,2.9,0.1,2.9-1.9c0-2-2.9-1.9-2.9-1.9l-8.2,0c-2.2-0.1-3.3,0.7-3.9,1.6l0,0
			c0,0-0.6,0.9-0.6,3.1l0,0l0,19.5c0,0.1-0.1,3.4,2.2,3.4c2.3,0,2.3-3.3,2.3-3.4l0-7.9l7.5,0c0,0,2.9,0.2,2.9-1.9
			c0-2-2.9-1.9-2.9-1.9l-7.5,0v-8.6L192.2,149.8z"/>
		<path fill="#282829" d="M217.7,146L217.7,146l-14.8,0c-0.1,0-2.9-0.1-2.9,1.9c0,2.1,2.9,2,2.9,2l5.2,0l0,20.3
			c0,0.1-0.2,3.4,2.2,3.4c2.4,0,2.3-3.3,2.3-3.4l0-20.3h5.1v0c0,0,2.9,0.2,2.9-1.9C220.6,146,218.1,146,217.7,146z"/>
	</g>
</g>
</svg>
